#define app_width 42
#define app_height 32
#define app_x_hot 1
#define app_y_hot 1
static unsigned char app_bits[] = {
   0x00, 0xc0, 0xff, 0xff, 0x00, 0x00, 0x02, 0x40, 0x00, 0x80, 0x01, 0x00,
   0x06, 0x40, 0x00, 0x80, 0x02, 0x00, 0x0e, 0x40, 0x00, 0x80, 0x04, 0x00,
   0x1e, 0x40, 0x00, 0x80, 0x08, 0x00, 0x3e, 0x40, 0x00, 0x80, 0x10, 0x00,
   0x7e, 0x40, 0x00, 0x80, 0x20, 0x00, 0xfe, 0x40, 0x00, 0x80, 0x7f, 0x00,
   0xfe, 0x41, 0x00, 0x00, 0x60, 0x00, 0x3e, 0x40, 0xfe, 0xff, 0x67, 0x00,
   0x36, 0x40, 0xaa, 0xaa, 0x6e, 0x00, 0x62, 0x40, 0x56, 0x55, 0x6d, 0x00,
   0x60, 0x40, 0xfe, 0xff, 0x6f, 0x00, 0xc0, 0x40, 0x02, 0x00, 0x6c, 0x00,
   0xc0, 0x40, 0x02, 0x00, 0x6c, 0x00, 0x00, 0x40, 0x02, 0x00, 0x6c, 0x00,
   0x00, 0x40, 0x02, 0x00, 0x6c, 0x00, 0x00, 0x40, 0x02, 0x00, 0x6c, 0x00,
   0x00, 0x40, 0x02, 0x00, 0x6c, 0x00, 0x00, 0x40, 0x02, 0x00, 0x6c, 0x00,
   0x00, 0x40, 0x02, 0x00, 0x6c, 0x00, 0x00, 0x40, 0x02, 0x00, 0x6c, 0x00,
   0x00, 0x40, 0x02, 0x00, 0x6c, 0x00, 0x00, 0x40, 0x02, 0x00, 0x6c, 0x00,
   0x00, 0x40, 0x02, 0x00, 0x6c, 0x00, 0x00, 0x40, 0xfe, 0xff, 0x6f, 0x00,
   0x00, 0x40, 0xfc, 0xff, 0x6f, 0x00, 0x00, 0x40, 0x00, 0x00, 0x60, 0x00,
   0x00, 0x40, 0x00, 0x00, 0x60, 0x00, 0x00, 0x40, 0x00, 0x00, 0x60, 0x00,
   0x00, 0xc0, 0xff, 0xff, 0x7f, 0x00, 0x00, 0x80, 0xff, 0xff, 0x7f, 0x00};
