#define dir_width 42
#define dir_height 24
#define dir_x_hot 1
#define dir_y_hot 1
static unsigned char dir_bits[] = {
   0x00, 0x00, 0xff, 0x01, 0x00, 0x00, 0x02, 0x80, 0x00, 0x02, 0x00, 0x00,
   0x06, 0x40, 0x00, 0x04, 0x00, 0x00, 0x0e, 0x20, 0x00, 0x08, 0x00, 0x00,
   0x1e, 0xf0, 0xff, 0xff, 0xff, 0x03, 0x3e, 0x10, 0x00, 0x00, 0x00, 0x02,
   0x7e, 0x10, 0x00, 0x00, 0x00, 0x02, 0xfe, 0x10, 0x00, 0x00, 0x00, 0x02,
   0xfe, 0x11, 0x00, 0x00, 0x00, 0x02, 0x3e, 0x10, 0x00, 0x00, 0x00, 0x02,
   0x36, 0x10, 0x00, 0x00, 0x00, 0x02, 0x62, 0x10, 0x00, 0x00, 0x00, 0x02,
   0x60, 0x10, 0x00, 0x00, 0x00, 0x02, 0xc0, 0x10, 0x00, 0x00, 0x00, 0x02,
   0xc0, 0x10, 0x00, 0x00, 0x00, 0x02, 0x00, 0x10, 0x00, 0x00, 0x00, 0x02,
   0x00, 0x10, 0x00, 0x00, 0x00, 0x02, 0x00, 0x10, 0x00, 0x00, 0x00, 0x02,
   0x00, 0x10, 0x00, 0x00, 0x00, 0x02, 0x00, 0x10, 0x00, 0x00, 0x00, 0x02,
   0x00, 0x10, 0x00, 0x00, 0x00, 0x02, 0x00, 0x10, 0x00, 0x00, 0x00, 0x02,
   0x00, 0x10, 0x00, 0x00, 0x00, 0x02, 0x00, 0xf0, 0xff, 0xff, 0xff, 0x03};
