#define dir_mask_width 42
#define dir_mask_height 24
#define dir_mask_x_hot 1
#define dir_mask_y_hot 1
static unsigned char dir_mask_bits[] = {
   0x03, 0x00, 0xff, 0x01, 0x00, 0x00, 0x07, 0x80, 0xff, 0x03, 0x00, 0x00,
   0x0f, 0xc0, 0xff, 0x07, 0x00, 0x00, 0x1f, 0xe0, 0xff, 0x0f, 0x00, 0x00,
   0x3f, 0xf0, 0xff, 0xff, 0xff, 0x03, 0x7f, 0xf0, 0xff, 0xff, 0xff, 0x03,
   0xff, 0xf0, 0xff, 0xff, 0xff, 0x03, 0xff, 0xf1, 0xff, 0xff, 0xff, 0x03,
   0xff, 0xf3, 0xff, 0xff, 0xff, 0x03, 0xff, 0xf3, 0xff, 0xff, 0xff, 0x03,
   0x7f, 0xf0, 0xff, 0xff, 0xff, 0x03, 0xf7, 0xf0, 0xff, 0xff, 0xff, 0x03,
   0xf3, 0xf0, 0xff, 0xff, 0xff, 0x03, 0xe0, 0xf1, 0xff, 0xff, 0xff, 0x03,
   0xe0, 0xf1, 0xff, 0xff, 0xff, 0x03, 0xc0, 0xf0, 0xff, 0xff, 0xff, 0x03,
   0x00, 0xf0, 0xff, 0xff, 0xff, 0x03, 0x00, 0xf0, 0xff, 0xff, 0xff, 0x03,
   0x00, 0xf0, 0xff, 0xff, 0xff, 0x03, 0x00, 0xf0, 0xff, 0xff, 0xff, 0x03,
   0x00, 0xf0, 0xff, 0xff, 0xff, 0x03, 0x00, 0xf0, 0xff, 0xff, 0xff, 0x03,
   0x00, 0xf0, 0xff, 0xff, 0xff, 0x03, 0x00, 0xf0, 0xff, 0xff, 0xff, 0x03};
