#define file_width 42
#define file_height 32
#define file_x_hot 1
#define file_y_hot 1
static unsigned char file_bits[] = {
   0x00, 0xc0, 0xff, 0xff, 0x07, 0x00, 0x02, 0x40, 0x00, 0x00, 0x0a, 0x00,
   0x06, 0x40, 0x00, 0x00, 0x12, 0x00, 0x0e, 0x40, 0x00, 0x00, 0x22, 0x00,
   0x1e, 0x40, 0x00, 0x00, 0x3e, 0x00, 0x3e, 0x40, 0x00, 0x00, 0x20, 0x00,
   0x7e, 0x40, 0x00, 0x00, 0x20, 0x00, 0xfe, 0x40, 0x00, 0x00, 0x20, 0x00,
   0xfe, 0x41, 0x00, 0x00, 0x20, 0x00, 0x3e, 0x40, 0x00, 0x00, 0x20, 0x00,
   0x36, 0x40, 0x00, 0x00, 0x20, 0x00, 0x62, 0x40, 0x00, 0x00, 0x20, 0x00,
   0x60, 0x40, 0x00, 0x00, 0x20, 0x00, 0xc0, 0x40, 0x00, 0x00, 0x20, 0x00,
   0xc0, 0x40, 0x00, 0x00, 0x20, 0x00, 0x00, 0x40, 0x00, 0x00, 0x20, 0x00,
   0x00, 0x40, 0x00, 0x00, 0x20, 0x00, 0x00, 0x40, 0x00, 0x00, 0x20, 0x00,
   0x00, 0x40, 0x00, 0x00, 0x20, 0x00, 0x00, 0x40, 0x00, 0x00, 0x20, 0x00,
   0x00, 0x40, 0x00, 0x00, 0x20, 0x00, 0x00, 0x40, 0x00, 0x00, 0x20, 0x00,
   0x00, 0x40, 0x00, 0x00, 0x20, 0x00, 0x00, 0x40, 0x00, 0x00, 0x20, 0x00,
   0x00, 0x40, 0x00, 0x00, 0x20, 0x00, 0x00, 0x40, 0x00, 0x00, 0x20, 0x00,
   0x00, 0x40, 0x00, 0x00, 0x20, 0x00, 0x00, 0x40, 0x00, 0x00, 0x20, 0x00,
   0x00, 0x40, 0x00, 0x00, 0x20, 0x00, 0x00, 0x40, 0x00, 0x00, 0x20, 0x00,
   0x00, 0xc0, 0xff, 0xff, 0x3f, 0x00, 0x00, 0x00, 0x00, 0x00, 0x00, 0x00};
