#define files_width 42
#define files_height 32
#define files_x_hot 1
#define files_y_hot 1
static unsigned char files_bits[] = {
   0x00, 0xf8, 0xff, 0xff, 0x01, 0x00, 0x02, 0x08, 0x00, 0x80, 0x02, 0x00,
   0x06, 0x08, 0x00, 0x80, 0x04, 0x00, 0x0e, 0x08, 0x00, 0x80, 0x08, 0x00,
   0x1e, 0x08, 0x00, 0x80, 0x1f, 0x00, 0x3e, 0x08, 0x00, 0x00, 0x28, 0x00,
   0x7e, 0x08, 0x00, 0x00, 0x78, 0x00, 0xfe, 0x08, 0x00, 0x00, 0xa8, 0x00,
   0xfe, 0x09, 0x00, 0x00, 0xe8, 0x00, 0x3e, 0x08, 0x00, 0x00, 0xa8, 0x00,
   0x36, 0x08, 0x00, 0x00, 0xa8, 0x00, 0x62, 0x08, 0x00, 0x00, 0xa8, 0x00,
   0x60, 0x08, 0x00, 0x00, 0xa8, 0x00, 0xc0, 0x08, 0x00, 0x00, 0xa8, 0x00,
   0xc0, 0x08, 0x00, 0x00, 0xa8, 0x00, 0x00, 0x08, 0x00, 0x00, 0xa8, 0x00,
   0x00, 0x08, 0x00, 0x00, 0xa8, 0x00, 0x00, 0x08, 0x00, 0x00, 0xa8, 0x00,
   0x00, 0x08, 0x00, 0x00, 0xa8, 0x00, 0x00, 0x08, 0x00, 0x00, 0xa8, 0x00,
   0x00, 0x08, 0x00, 0x00, 0xa8, 0x00, 0x00, 0x08, 0x00, 0x00, 0xa8, 0x00,
   0x00, 0x08, 0x00, 0x00, 0xa8, 0x00, 0x00, 0x08, 0x00, 0x00, 0xa8, 0x00,
   0x00, 0x08, 0x00, 0x00, 0xa8, 0x00, 0x00, 0x08, 0x00, 0x00, 0xa8, 0x00,
   0x00, 0x08, 0x00, 0x00, 0xa8, 0x00, 0x00, 0xf8, 0xff, 0xff, 0xaf, 0x00,
   0x00, 0x10, 0x00, 0x00, 0xa0, 0x00, 0x00, 0xf0, 0xff, 0xff, 0xbf, 0x00,
   0x00, 0x20, 0x00, 0x00, 0x80, 0x00, 0x00, 0xe0, 0xff, 0xff, 0xff, 0x00};
