#define grey_width 42
#define grey_height 32
#define grey_x_hot 1
#define grey_y_hot 1
static unsigned char grey_bits[] = {
   0x00, 0xc0, 0xff, 0xff, 0x00, 0x00, 0x02, 0x40, 0x55, 0xd5, 0x01, 0x00,
   0x06, 0xc0, 0xaa, 0xaa, 0x03, 0x00, 0x0e, 0x40, 0x55, 0xd5, 0x07, 0x00,
   0x1e, 0xc0, 0xaa, 0xaa, 0x0f, 0x00, 0x3e, 0x40, 0x55, 0xd5, 0x1f, 0x00,
   0x7e, 0xc0, 0xaa, 0xaa, 0x3f, 0x00, 0xfe, 0x40, 0x55, 0xd5, 0x7f, 0x00,
   0xfe, 0xc1, 0xaa, 0xaa, 0x7f, 0x00, 0x3e, 0x40, 0x55, 0x55, 0x75, 0x00,
   0x36, 0xc0, 0xaa, 0xaa, 0x6a, 0x00, 0x72, 0x40, 0x55, 0x55, 0x75, 0x00,
   0x60, 0xc0, 0xaa, 0xaa, 0x6a, 0x00, 0xc0, 0x40, 0x55, 0x55, 0x75, 0x00,
   0xc0, 0xc0, 0xaa, 0xaa, 0x6a, 0x00, 0x00, 0x40, 0x55, 0x55, 0x75, 0x00,
   0x00, 0xc0, 0xaa, 0xaa, 0x6a, 0x00, 0x00, 0x40, 0x55, 0x55, 0x75, 0x00,
   0x00, 0xc0, 0xaa, 0xaa, 0x6a, 0x00, 0x00, 0x40, 0x55, 0x55, 0x75, 0x00,
   0x00, 0xc0, 0xaa, 0xaa, 0x6a, 0x00, 0x00, 0x40, 0x55, 0x55, 0x75, 0x00,
   0x00, 0xc0, 0xaa, 0xaa, 0x6a, 0x00, 0x00, 0x40, 0x55, 0x55, 0x75, 0x00,
   0x00, 0xc0, 0xaa, 0xaa, 0x6a, 0x00, 0x00, 0x40, 0x55, 0x55, 0x75, 0x00,
   0x00, 0xc0, 0xaa, 0xaa, 0x6a, 0x00, 0x00, 0x40, 0x55, 0x55, 0x75, 0x00,
   0x00, 0xc0, 0xaa, 0xaa, 0x6a, 0x00, 0x00, 0x40, 0x55, 0x55, 0x75, 0x00,
   0x00, 0xc0, 0xff, 0xff, 0x7f, 0x00, 0x00, 0x80, 0xff, 0xff, 0x7f, 0x00};
