#define link_width 42
#define link_height 32
#define link_x_hot 1
#define link_y_hot 1
static unsigned char link_bits[] = {
   0x00, 0xc0, 0xff, 0xff, 0x01, 0x00, 0x02, 0x40, 0x00, 0x00, 0x03, 0x00,
   0x06, 0x40, 0x00, 0x00, 0x05, 0x00, 0x0e, 0x40, 0x00, 0x00, 0x09, 0x00,
   0x1e, 0x40, 0x00, 0x00, 0x11, 0x00, 0x3e, 0x40, 0x00, 0x00, 0x21, 0x00,
   0x7e, 0x40, 0x00, 0x00, 0x7f, 0x00, 0xfe, 0x40, 0x00, 0x00, 0x60, 0x00,
   0xfe, 0x41, 0x00, 0x00, 0x60, 0x00, 0x3e, 0x40, 0x00, 0x00, 0x60, 0x00,
   0x36, 0xc0, 0xc3, 0x1f, 0x7e, 0x00, 0x62, 0x40, 0xa5, 0x2a, 0x75, 0x00,
   0x60, 0xc0, 0xdb, 0xdf, 0x7e, 0x00, 0xc0, 0x40, 0xff, 0xf8, 0x67, 0x00,
   0xc0, 0xc0, 0x55, 0xad, 0x6a, 0x00, 0x00, 0xc0, 0xaa, 0x55, 0x6d, 0x00,
   0x00, 0x40, 0xff, 0xf8, 0x67, 0x00, 0x00, 0xc0, 0xdb, 0xdf, 0x7e, 0x00,
   0x00, 0x40, 0xa5, 0x2a, 0x75, 0x00, 0x00, 0xc0, 0xc3, 0x1f, 0x7e, 0x00,
   0x00, 0x40, 0x00, 0x00, 0x60, 0x00, 0x00, 0x40, 0x00, 0x00, 0x60, 0x00,
   0x00, 0x40, 0x00, 0x00, 0x60, 0x00, 0x00, 0x40, 0x88, 0x52, 0x62, 0x00,
   0x00, 0x40, 0x88, 0x56, 0x61, 0x00, 0x00, 0x40, 0x88, 0xda, 0x60, 0x00,
   0x00, 0x40, 0x88, 0x52, 0x61, 0x00, 0x00, 0x40, 0xb8, 0x52, 0x62, 0x00,
   0x00, 0x40, 0x00, 0x00, 0x60, 0x00, 0x00, 0x40, 0x00, 0x00, 0x60, 0x00,
   0x00, 0xc0, 0xff, 0xff, 0x7f, 0x00, 0x00, 0x80, 0xff, 0xff, 0x7f, 0x00};
