#define text_width 42
#define text_height 32
#define text_x_hot 1
#define text_y_hot 1
static unsigned char text_bits[] = {
   0x00, 0xc0, 0xff, 0xff, 0x00, 0x00, 0x02, 0x40, 0x00, 0x80, 0x01, 0x00,
   0x06, 0x40, 0x00, 0x80, 0x02, 0x00, 0x0e, 0x40, 0xde, 0xbd, 0x04, 0x00,
   0x1e, 0x40, 0x00, 0x80, 0x08, 0x00, 0x3e, 0x40, 0x00, 0x80, 0x10, 0x00,
   0x7e, 0x40, 0xb8, 0xef, 0x20, 0x00, 0xfe, 0x40, 0x00, 0x80, 0x7f, 0x00,
   0xfe, 0x41, 0xfe, 0xf6, 0x64, 0x00, 0x3e, 0x40, 0x00, 0x00, 0x60, 0x00,
   0x36, 0x40, 0xf6, 0xce, 0x67, 0x00, 0x62, 0x40, 0x00, 0x00, 0x60, 0x00,
   0x60, 0x40, 0xba, 0xfb, 0x60, 0x00, 0xc0, 0x40, 0x00, 0x00, 0x60, 0x00,
   0xc0, 0x40, 0x00, 0x00, 0x60, 0x00, 0x00, 0x40, 0x00, 0x00, 0x60, 0x00,
   0x00, 0x40, 0x14, 0x3b, 0x63, 0x00, 0x00, 0x40, 0x00, 0x00, 0x60, 0x00,
   0x00, 0x40, 0xf4, 0xba, 0x60, 0x00, 0x00, 0x40, 0x00, 0x00, 0x60, 0x00,
   0x00, 0x40, 0x74, 0x07, 0x60, 0x00, 0x00, 0x40, 0x00, 0x00, 0x60, 0x00,
   0x00, 0x40, 0xff, 0xf6, 0x67, 0x00, 0x00, 0x40, 0x00, 0x00, 0x60, 0x00,
   0x00, 0x40, 0xf7, 0x7d, 0x66, 0x00, 0x00, 0x40, 0x00, 0x00, 0x60, 0x00,
   0x00, 0x40, 0xdf, 0xef, 0x63, 0x00, 0x00, 0x40, 0x00, 0x00, 0x60, 0x00,
   0x00, 0x40, 0x00, 0x06, 0x60, 0x00, 0x00, 0x40, 0x00, 0x00, 0x60, 0x00,
   0x00, 0xc0, 0xff, 0xff, 0x7f, 0x00, 0x00, 0x80, 0xff, 0xff, 0x7f, 0x00};
