/* XPM */
static char * c2on[] = {
/* width height ncolors cpp [x_hot y_hot] */
"17 17 4 1 0 0",
/* colors */
" 	s none	m none	c none",
".	s bottomShadowColor	m black	c #646464646464",
"X	s foreground		m black c black",
"o	s topShadowColor	m white	c white",
/* pixels */
"                 ",
"     .......     ",
"   ..XXXXXXXoo   ",
"  ..X       Xoo  ",
"  .X    X     o  ",
" .X   XXXXX    o ",
" .X  XXXXXXX   o ",
" .X  XXXXXXX   o ",
" .X XXXXXXXXX  o ",
" .X  XXXXXXX   o ",
" .X  XXXXXXX   o ",
" .X   XXXXX    o ",
"  .X    X     o  ",
"  ..X        oo  ",
"   ..XXX    oo   ",
"     ooooooo     ",
"                 "};
