/* XPM */
static char * coff [] = {
/* width height ncolors cpp [x_hot y_hot] */
"17 17 3 1 0 0",
/* colors */
" 	s none	m none	c none",
".	s bottomShadowColor	m black	c #646464646464",
"X	s topShadowColor	m white	c #c8c8c8c8c8c8",
/* pixels */
"                 ",
"     .......     ",
"   ......XXXXX   ",
"  ...       XXX  ",
"  ..         XX  ",
" ..           XX ",
" ..           XX ",
" ..           XX ",
" ..           XX ",
" ..           XX ",
" ..           XX ",
" ..           XX ",
"  ..         XX  ",
"  ...       XXX  ",
"   .....XXXXXX   ",
"     XXXXXXX     ",
"                 "};
