/* XPM */
static char * con [] = {
/* width height ncolors cpp [x_hot y_hot] */
"17 17 4 1 0 0",
/* colors */
" 	s none	m none	c none",
".	s topShadowColor	m white	c #c8c8c8c8c8c8",
"X	s bottomShadowColor	m black	c #646464646464",
"o	s foreground		m black c black",
/* pixels */
"                 ",
"     .......     ",
"   ......XXXXX   ",
"  ...oooooooXXX  ",
"  ..oooooooooXX  ",
" ..oooooooooooXX ",
" ..oooooooooooXX ",
" ..oooooooooooXX ",
" ..oooooooooooXX ",
" ..oooooooooooXX ",
" ..oooooooooooXX ",
" ..oooooooooooXX ",
"  ..oooooooooXX  ",
"  ...oooooooXXX  ",
"   .....XXXXXX   ",
"     XXXXXXX     ",
"                 "};
