/* XPM */
static char * croff [] = {
/* width height ncolors cpp [x_hot y_hot] */
"17 17 3 1 0 0",
/* colors */
" 	s bottomShadowColor	m black	c #646464646464",
".	s topShadowColor	m white	c #c8c8c8c8c8c8",
"X	s none	m none	c none",
/* pixels */
"                .",
"               ..",
"  XXXXXXXXXXXXX..",
"  XXXXXXXXXXXXX..",
"  XXXXXXXXXXXXX..",
"  XXXXXXXXXXXXX..",
"  XXXXXXXXXXXXX..",
"  XXXXXXXXXXXXX..",
"  XXXXXXXXXXXXX..",
"  XXXXXXXXXXXXX..",
"  XXXXXXXXXXXXX..",
"  XXXXXXXXXXXXX..",
"  XXXXXXXXXXXXX..",
"  XXXXXXXXXXXXX..",
"  XXXXXXXXXXXXX..",
" ................",
"................."};
