/* XPM */
static char * cron[] = {
/* width height ncolors cpp [x_hot y_hot] */
"17 17 4 1 0 0",
/* colors */
" 	s bottomShadowColor	m black	c #646464646464",
".	s topShadowColor	m white	c #c8c8c8c8c8c8",
"X	s none	m none	c none",
"O	s foreground		m black c black",
/* pixels */
"                .",
"               ..",
"  XXXXXXXXXXXXX..",
"  XXXXXXXXXXXXX..",
"  XXOOXXXXXOOXX..",
"  XXOOOXXXOOOXX..",
"  XXXOOOXOOOXXX..",
"  XXXXOOOOOXXXX..",
"  XXXXXOOOXXXXX..",
"  XXXXOOOOOXXXX..",
"  XXXOOOXOOOXXX..",
"  XXOOOXXXOOOXX..",
"  XXOOXXXXXOOXX..",
"  XXXXXXXXXXXXX..",
"  XXXXXXXXXXXXX..",
" ................",
"................."};
