/* XPM */
static char * mc2on[] = {
"9 9 4 1",
" 	s None	c None",
".	s bottomShadowColor	c black",
"X	s topShadowColor	c white",
"o	s foreground		c black",
"   ...   ",
"  .   X  ",
" .  o  X ",
".  ooo  X",
". ooooo X",
".  ooo  X",
" .  o  X ",
"  .   X  ",
"   XXX   "};
