/* XPM */
static char * radio_16_on_xpm[] = {
"16 16 3 1",
" 	c none",
".	c #000000000000",
"X	c #FFFFFFFFFFFF",
"     .....      ",
"   ..XXXXX..    ",
"  .XXXXXXXXX.   ",
" .XXXX...XXXX.  ",
" .XX.......XX.  ",
".XXX.......XXX. ",
".XX.........XX. ",
".XX.........XX. ",
".XX.........XX. ",
".XXX.......XXX. ",
" .XX.......XX.  ",
" .XXXX...XXXX.  ",
"  .XXXXXXXXX.   ",
"   ..XXXXX..    ",
"     .....      ",
"                "};
