/* XPM */
static char * radio_motif_off_xpm[] = {
"15 15 4 1",
" 	c none",
".	c #DF7DDF7DDF7D",
"X	c #BEFBBEFBBEFB",
"o	c #820782078207",
"       .       ",
"      ...      ",
"     .....     ",
"    ...X...    ",
"   ...XXX...   ",
"  ...XXXXX...  ",
" ...XXXXXXX... ",
"...XXXXXXXXXooo",
" oooXXXXXXXooo ",
"  oooXXXXXooo  ",
"   oooXXXooo   ",
"    oooXooo    ",
"     ooooo     ",
"      ooo      ",
"       o       "};
