/* XPM */
static char * rtab_xpm[] = {
"9 5 2 1",
"       c None",
".      c #000000000000",
"    .    ",
"   ..    ",
"  ...    ",
" ....    ",
".....    "};
