/* XPM */
static char * tickbox_on_xpm[] = {
"16 16 3 1",
" 	c none",
".	c #000000000000",
"X	c #FFFFFFFFFFFF",
"                ",
"               .",
" ..........XX.. ",
" .XXXXXXXXXX..  ",
" .XXXXXXXXX..X  ",
" .XXXXXXXX..XX  ",
" .XX..XXX...X.  ",
" .X....X...XX.  ",
" ..........XX.  ",
" .X.......XXX.  ",
" .XX......XXX.  ",
" .XXX....XXXX.  ",
" .XXXX...XXXX.  ",
" .XXXXX.XXXXX.  ",
" .............  ",
"                "};
