/* XPM */
static char * trioff[] = {
/* width height num_colors chars_per_pixel */
"12 12 3 1",
/* colors */
" 	s None	c None",
".	s topShadowColor        m white c #e7e7e7",
"X	s bottomShadowColor     m black c #656565",
/* pixels */
"            ",
"  ..        ",
"  ....      ",
"  ......    ",
"  ..  ....  ",
"  ..    ..  ",
"  ..    XX  ",
"  ..  XXXX  ",
"  ..XXXX    ",
"  .XXX      ",
"  .X        ",
"            "};
