/* XPM */
static char * trion[] = {
/* width height num_colors chars_per_pixel */
"12 12 4 1",
/* colors */
" 	s None	c None",
".	s bottomShadowColor     m black c #656565",
"X	s foreground            m black c black",
"o	s topShadowColor        m white c #bebebe",
/* pixels */
"            ",
"  ..        ",
"  ....      ",
"  ......    ",
"  ..XX....  ",
"  ..XXXX..  ",
"  ..XXXXoo  ",
"  ..XXoooo  ",
"  ..oooo    ",
"  .ooo      ",
"  .o        ",
"            "};
